<svg width="80" height="80" viewBox="0 0 80 80" fill="none" xmlns="http://www.w3.org/2000/svg">
<g filter="url(#filter0_d_1_3862)">
<circle cx="40" cy="36" r="36" fill="#40DDB6"/>
<path d="M45.4997 52.12H32.6597C30.3197 52.12 28.4297 50.23 28.4297 47.89V27" stroke="white" stroke-width="2" stroke-miterlimit="10"/>
<path d="M25.5801 19H47.2801C49.5501 19 51.4001 20.84 51.4001 23.12V32.39" stroke="white" stroke-width="2" stroke-miterlimit="10"/>
<path d="M28.42 26.28H23V21.71C23 20.21 24.21 19 25.71 19C27.21 19 28.42 20.21 28.42 21.71V26.28Z" stroke="white" stroke-width="2" stroke-miterlimit="10"/>
<path d="M56.3201 39.9999L55.1001 41.8199L54.6701 43.9699L52.5201 44.3999L50.7001 45.6199L48.8801 44.3999L46.7301 43.9699L46.3001 41.8199L45.0801 39.9999L46.3001 38.1799L46.7301 36.0299L48.8801 35.5999L50.7001 34.3799L52.5201 35.5999L54.6701 36.0299L55.1001 38.1799L56.3201 39.9999Z" stroke="white" stroke-width="2" stroke-miterlimit="10"/>
<path d="M53.8104 43.8501V51.3301L50.7104 49.2501L47.6104 51.3301V43.8501" stroke="white" stroke-width="2" stroke-miterlimit="10"/>
<path d="M34.0703 25.25H44.2803" stroke="white" stroke-width="2" stroke-miterlimit="10"/>
<path d="M34.0703 30.5H44.2803" stroke="white" stroke-width="2" stroke-miterlimit="10"/>
<path d="M34.0703 35.6899H44.2803" stroke="white" stroke-width="2" stroke-miterlimit="10"/>
<path d="M34.0703 40.77H40.8403" stroke="white" stroke-width="2" stroke-miterlimit="10"/>
<path d="M34.0703 45.96H40.8403" stroke="white" stroke-width="2" stroke-miterlimit="10"/>
</g>
<defs>
<filter id="filter0_d_1_3862" x="0" y="0" width="80" height="80" filterUnits="userSpaceOnUse" color-interpolation-filters="sRGB">
<feFlood flood-opacity="0" result="BackgroundImageFix"/>
<feColorMatrix in="SourceAlpha" type="matrix" values="0 0 0 0 0 0 0 0 0 0 0 0 0 0 0 0 0 0 127 0" result="hardAlpha"/>
<feOffset dy="4"/>
<feGaussianBlur stdDeviation="2"/>
<feComposite in2="hardAlpha" operator="out"/>
<feColorMatrix type="matrix" values="0 0 0 0 0 0 0 0 0 0 0 0 0 0 0 0 0 0 0.25 0"/>
<feBlend mode="normal" in2="BackgroundImageFix" result="effect1_dropShadow_1_3862"/>
<feBlend mode="normal" in="SourceGraphic" in2="effect1_dropShadow_1_3862" result="shape"/>
</filter>
</defs>
</svg>
